<svg id="Livello_1" data-name="Livello 1" xmlns="http://www.w3.org/2000/svg" xmlns:xlink="http://www.w3.org/1999/xlink" viewBox="0 0 2048 2048"><defs><linearGradient id="Sfumatura_senza_nome_4" x1="139" y1="719.2" x2="849.38" y2="719.2" gradientUnits="userSpaceOnUse"><stop offset="0" stop-color="#6c4394"/><stop offset="1" stop-color="#e65692"/></linearGradient><linearGradient id="Sfumatura_senza_nome_7" x1="1910" y1="1025.7" x2="846.08" y2="1025.7" gradientUnits="userSpaceOnUse"><stop offset="0" stop-color="#2d55a2"/><stop offset="1" stop-color="#5ec0e0"/></linearGradient></defs><path d="M671.13,1204.12a178.3,178.3,0,0,1-154.7-89.3l-353.54-613A178.39,178.39,0,0,1,228.3,258.15c85.34-49.21,194.44-19.94,243.66,65.41l353.53,613a178.43,178.43,0,0,1-154.36,267.54Z" style="fill:url(#Sfumatura_senza_nome_4)"/><path d="M1024.34,1817.14A178.44,178.44,0,0,1,870,1549.6L1577,323.56a178.39,178.39,0,1,1,309.07,178.25L1179,1727.84A178.33,178.33,0,0,1,1024.34,1817.14Z" style="fill:url(#Sfumatura_senza_nome_7)"/></svg>