<?xml version="1.0" encoding="utf-8"?>
<!-- Generator: Adobe Illustrator 27.8.0, SVG Export Plug-In . SVG Version: 6.00 Build 0)  -->
<svg version="1.1" id="Livello_1" xmlns="http://www.w3.org/2000/svg" xmlns:xlink="http://www.w3.org/1999/xlink" x="0px" y="0px"
	 viewBox="0 0 2048 2048" style="enable-background:new 0 0 2048 2048;" xml:space="preserve">
<style type="text/css">
	.st0{fill-rule:evenodd;clip-rule:evenodd;}
	.st1{fill:url(#SVGID_1_);}
	.st2{fill:url(#SVGID_00000005252142020925600520000003308971005768376706_);}
</style>
<g>
	<path class="st0" d="M459.4,635.9c0-97.4,79-176.4,176.4-176.4h776.3c97.4,0,176.4,79,176.4,176.4v776.3
		c0,97.4-79,176.4-176.4,176.4H635.9c-97.4,0-176.4-79-176.4-176.4V635.9z M635.9,530C577.4,530,530,577.4,530,635.9v776.3
		c0,58.5,47.4,105.9,105.9,105.9h776.3c58.5,0,105.9-47.4,105.9-105.9V635.9c0-58.5-47.4-105.9-105.9-105.9H635.9z"/>
	<path class="st0" d="M1024,494.7c0-19.5,15.8-35.3,35.3-35.3h282.3c19.5,0,35.3,15.8,35.3,35.3v423.4c0,12.2-6.3,23.6-16.7,30
		c-10.4,6.4-23.4,7-34.3,1.5L1200.4,887l-125.4,62.7c-10.9,5.5-23.9,4.9-34.3-1.5c-10.4-6.4-16.7-17.8-16.7-30L1024,494.7z
		 M1094.6,530v331l90.1-45c9.9-5,21.6-5,31.6,0l90.1,45V530H1094.6z"/>
</g>
<g>
	
		<linearGradient id="SVGID_1_" gradientUnits="userSpaceOnUse" x1="751.4807" y1="822.3994" x2="1196.5603" y2="822.3994" gradientTransform="matrix(1 0 0 -1 0 2045.8899)">
		<stop  offset="0" style="stop-color:#6C4394"/>
		<stop  offset="1" style="stop-color:#E65692"/>
	</linearGradient>
	<path class="st1" d="M1084.9,1527.3c-40,0-77-21.3-96.9-56l-221.5-384.1c-30.8-53.5-12.5-121.8,41-152.7c0,0,0,0,0,0
		c53.5-30.8,121.8-12.5,152.7,41l221.5,384.1c30.8,53.5,12.5,121.9-41,152.7C1123.6,1522.1,1104.4,1527.3,1084.9,1527.3
		L1084.9,1527.3z"/>
	
		<linearGradient id="SVGID_00000026856370763729706380000011560388932704086950_" gradientUnits="userSpaceOnUse" x1="1861.0726" y1="630.3579" x2="1194.5542" y2="630.3579" gradientTransform="matrix(1 0 0 -1 0 2045.8899)">
		<stop  offset="0" style="stop-color:#2D55A2"/>
		<stop  offset="1" style="stop-color:#5EC0E0"/>
	</linearGradient>
	<path style="fill:url(#SVGID_00000026856370763729706380000011560388932704086950_);" d="M1306.2,1911.4
		c-61.7-0.1-111.7-50.2-111.6-112c0-19.5,5.2-38.7,14.9-55.7l443-768.2c30.8-53.5,99.2-71.8,152.7-41c53.5,30.8,71.8,99.2,41,152.7
		l0,0l-443,768.2C1383.1,1890.1,1346.2,1911.4,1306.2,1911.4z"/>
</g>
</svg>
