<?xml version="1.0" encoding="utf-8"?>
<svg width="410" height="370" viewBox="0 0 410 370" fill="none" xmlns="http://www.w3.org/2000/svg">
  <g clip-path="url(#clip0_30514464)" style="" transform="matrix(0.959418, 0, 0, 0.959418, 0.527562, 14.406502)">
    <rect width="198" height="318" transform="translate(212 24)" fill="var(--vscode-editor-background, #1E1E1E)"/>
    <rect width="336" height="35" transform="translate(212 24)" fill="var(--vscode-editorGroupHeader-tabsBackground, #252526)"/>
    <rect width="103" height="35" transform="translate(212 24)" fill="var(--vscode-editor-background, #1E1E1E)"/>
    <rect x="224" y="38" width="79" height="7" rx="3.5" fill="var(--vscode-editor-foreground, #FFFFFF)" fill-opacity="0.12"/>
    <rect x="255" y="77" width="55" height="7" rx="3.5" fill="var(--vscode-editor-foreground, #FFFFFF)" fill-opacity="0.16"/>
    <rect x="255" y="96" width="55" height="7" rx="3.5" fill="var(--vscode-editor-foreground, #FFFFFF)" fill-opacity="0.16"/>
    <rect x="255" y="153" width="72" height="7" rx="3.5" fill="var(--vscode-editor-foreground, #FFFFFF)" fill-opacity="0.16"/>
    <rect x="333" y="153" width="26" height="7" rx="3.5" fill="var(--vscode-editor-foreground, #FFFFFF)" fill-opacity="0.16"/>
    <rect x="255" y="273" width="72" height="7" rx="3.5" fill="var(--vscode-editor-foreground, #FFFFFF)" fill-opacity="0.16"/>
    <rect x="333" y="273" width="26" height="7" rx="3.5" fill="var(--vscode-editor-foreground, #FFFFFF)" fill-opacity="0.16"/>
    <rect x="272" y="172" width="30" height="7" rx="3.5" fill="var(--vscode-editor-foreground, #FFFFFF)" fill-opacity="0.16"/>
    <rect x="282" y="191" width="30" height="7" rx="3.5" fill="var(--vscode-editor-foreground, #FFFFFF)" fill-opacity="0.16"/>
    <rect x="318" y="191" width="41" height="7" rx="3.5" fill="var(--vscode-editor-foreground, #FFFFFF)" fill-opacity="0.16"/>
    <rect x="272" y="210" width="30" height="7" rx="3.5" fill="var(--vscode-editor-foreground, #FFFFFF)" fill-opacity="0.16"/>
    <rect x="263" y="229" width="31" height="7" rx="3.5" fill="var(--vscode-editor-foreground, #FFFFFF)" fill-opacity="0.16"/>
    <rect x="316" y="77" width="52" height="7" rx="3.5" fill="var(--vscode-editor-foreground, #FFFFFF)" fill-opacity="0.16"/>
    <rect x="316" y="96" width="74" height="7" rx="3.5" fill="var(--vscode-editor-foreground, #FFFFFF)" fill-opacity="0.16"/>
    <rect x="309" y="172" width="59" height="7" rx="3.5" fill="var(--vscode-editor-foreground, #FFFFFF)" fill-opacity="0.16"/>
  </g>
  <g filter="url(#filter0_d_30514464)" style="" transform="matrix(0.959418, 0, 0, 0.959418, 0.527562, 14.406502)">
    <rect x="13" y="11" width="212.268" height="344" fill="var(--vscode-sideBar-background, #292929)"/>
    <path d="M34.8806 39.7488H31.8019V37.7511H34.716V36.9236H31.8019V35.0461H34.8806V34.1875H30.8053V40.6074H34.8806V39.7488ZM35.9128 40.6074H37.0161L38.6133 38.1916H38.689L40.2639 40.6074H41.4296L39.2896 37.4086L41.4696 34.1875H40.3485L38.7602 36.6389H38.6845L37.1229 34.1875H35.935L38.0572 37.3774L35.9128 40.6074ZM42.6753 34.1875V40.6074H43.6719V38.414H45.1579C46.4169 38.414 47.3067 37.5509 47.3067 36.3141C47.3067 35.0506 46.4436 34.1875 45.189 34.1875H42.6753ZM43.6719 35.0283H44.9265C45.803 35.0283 46.2879 35.4821 46.2879 36.3141C46.2879 37.1194 45.7852 37.5776 44.9265 37.5776H43.6719V35.0283ZM52.5967 39.7399H49.5891V34.1875H48.5925V40.6074H52.5967V39.7399ZM56.3561 34.0317C54.5142 34.0317 53.3574 35.3264 53.3574 37.3952C53.3574 39.4596 54.4875 40.7631 56.3561 40.7631C58.2113 40.7631 59.3503 39.4551 59.3503 37.3952C59.3503 35.3309 58.2024 34.0317 56.3561 34.0317ZM56.3561 34.9127C57.5707 34.9127 58.3315 35.8736 58.3315 37.3952C58.3315 38.9034 57.5751 39.8822 56.3561 39.8822C55.1193 39.8822 54.3763 38.9034 54.3763 37.3952C54.3763 35.8736 55.1415 34.9127 56.3561 34.9127ZM61.6994 38.1382H63.1053L64.4133 40.6074H65.5656L64.1241 37.9825C64.9071 37.72 65.3698 37.017 65.3698 36.1495C65.3698 34.9527 64.5379 34.1875 63.2432 34.1875H60.7028V40.6074H61.6994V38.1382ZM61.6994 35.0239H63.1053C63.875 35.0239 64.3466 35.4554 64.3466 36.1717C64.3466 36.9058 63.9017 37.3196 63.132 37.3196H61.6994V35.0239ZM70.8644 39.7488H67.7857V37.7511H70.6998V36.9236H67.7857V35.0461H70.8644V34.1875H66.7891V40.6074H70.8644V39.7488ZM73.3025 38.1382H74.7084L76.0164 40.6074H77.1687L75.7272 37.9825C76.5102 37.72 76.9729 37.017 76.9729 36.1495C76.9729 34.9527 76.141 34.1875 74.8463 34.1875H72.3059V40.6074H73.3025V38.1382ZM73.3025 35.0239H74.7084C75.478 35.0239 75.9496 35.4554 75.9496 36.1717C75.9496 36.9058 75.5047 37.3196 74.7351 37.3196H73.3025V35.0239ZM79.0239 37.3329C79.4021 37.3329 79.6779 37.0526 79.6779 36.6923C79.6779 36.3319 79.4021 36.0516 79.0239 36.0516C78.6502 36.0516 78.3699 36.3319 78.3699 36.6923C78.3699 37.0526 78.6502 37.3329 79.0239 37.3329ZM79.0239 40.6742C79.4021 40.6742 79.6779 40.3939 79.6779 40.0335C79.6779 39.6731 79.4021 39.3928 79.0239 39.3928C78.6502 39.3928 78.3699 39.6731 78.3699 40.0335C78.3699 40.3939 78.6502 40.6742 79.0239 40.6742ZM90.2533 40.6074V34.1875H89.0876L87.0411 39.2104H86.9655L84.9233 34.1875H83.7577V40.6074H84.6831V35.9048H84.7454L86.6273 40.4917H87.3837L89.2656 35.9048H89.3279V40.6074H90.2533ZM94.6311 40.6074V37.978L96.8957 34.1875H95.7879L94.1729 36.9859H94.0973L92.4823 34.1875H91.3745L93.6346 37.978V40.6074H94.6311ZM100.179 38.463V37.5776H97.2605V38.463H100.179ZM105.674 40.6074H106.733L104.415 34.1875H103.342L101.024 40.6074H102.048L102.639 38.8723H105.086L105.674 40.6074ZM103.827 35.322H103.903L104.833 38.0715H102.893L103.827 35.322ZM107.854 34.1875V40.6074H108.85V38.414H110.336C111.595 38.414 112.485 37.5509 112.485 36.3141C112.485 35.0506 111.622 34.1875 110.367 34.1875H107.854ZM108.85 35.0283H110.105C110.981 35.0283 111.466 35.4821 111.466 36.3141C111.466 37.1194 110.964 37.5776 110.105 37.5776H108.85V35.0283ZM113.771 34.1875V40.6074H114.767V38.414H116.253C117.513 38.414 118.402 37.5509 118.402 36.3141C118.402 35.0506 117.539 34.1875 116.285 34.1875H113.771ZM114.767 35.0283H116.022C116.899 35.0283 117.384 35.4821 117.384 36.3141C117.384 37.1194 116.881 37.5776 116.022 37.5776H114.767V35.0283Z" fill="var(--vscode-foreground, #CCCCCC)"/>
    <path d="M35.984 65.1001L40.336 60.7481L40.96 61.3721L36.288 66.0281H35.664L31.008 61.3721L31.616 60.7481L35.984 65.1001Z" fill="var(--vscode-foreground, #808080)"/>
    <rect x="52" y="59.5361" width="42" height="7" rx="3.5" fill="var(--vscode-foreground, #FFFFFF)" fill-opacity="0.16"/>
    <path d="M47.984 89.1001L52.336 84.7481L52.96 85.3721L48.288 90.0281H47.664L43.008 85.3721L43.616 84.7481L47.984 89.1001Z" fill="var(--vscode-foreground, #808080)"/>
    <rect x="64" y="83.5361" width="42" height="7" rx="3.5" fill="var(--vscode-foreground, #FFFFFF)" fill-opacity="0.16"/>
    <rect width="210.268" height="24" transform="translate(14 99.0361)" fill="var(--vscode-list-activeSelectionBackground, #062F4A)"/>
    <path d="M47.76 110.716H46.5C46.06 110.716 45.7067 110.849 45.44 111.116C45.1867 111.369 45.06 111.716 45.06 112.156V113.276C45.06 113.409 45 113.476 44.88 113.476H44.32C43.7333 113.476 43.3133 113.223 43.06 112.716C42.86 112.303 42.76 111.929 42.76 111.596C42.68 110.769 42.74 110.083 42.94 109.536C43.1533 108.896 43.5467 108.523 44.12 108.416H47.74C47.8733 108.416 47.94 108.396 47.94 108.356V108.036L47.86 107.996C47.8067 107.983 47.7733 107.976 47.76 107.976H45.62C45.5267 107.976 45.46 107.956 45.42 107.916C45.3933 107.876 45.38 107.809 45.38 107.716V106.916C45.38 106.449 45.5667 106.156 45.94 106.036C46.3533 105.863 46.6667 105.756 46.88 105.716C47.68 105.583 48.4267 105.603 49.12 105.776C49.4667 105.856 49.76 105.983 50 106.156C50.1467 106.303 50.2467 106.436 50.3 106.556C50.38 106.703 50.4067 106.863 50.38 107.036V109.276C50.38 109.716 50.26 110.056 50.02 110.296C49.78 110.536 49.44 110.656 49 110.656C48.7067 110.696 48.2933 110.716 47.76 110.716ZM46 106.976C46 107.109 46.0467 107.229 46.14 107.336C46.2333 107.429 46.3467 107.476 46.48 107.476C46.6133 107.476 46.7333 107.423 46.84 107.316C46.9467 107.209 47 107.096 47 106.976C47 106.856 46.9467 106.749 46.84 106.656C46.7467 106.563 46.6333 106.503 46.5 106.476C46.3533 106.476 46.2333 106.529 46.14 106.636C46.0467 106.729 46 106.843 46 106.976ZM48.26 111.356H49.5C49.94 111.356 50.2867 111.229 50.54 110.976C50.8067 110.709 50.94 110.356 50.94 109.916V108.776C50.94 108.656 51 108.596 51.12 108.596H51.68C52.2667 108.596 52.6867 108.849 52.94 109.356C53.1533 109.769 53.26 110.143 53.26 110.476C53.3267 111.303 53.26 111.989 53.06 112.536C52.8467 113.176 52.4533 113.549 51.88 113.656H48.26C48.1267 113.656 48.06 113.676 48.06 113.716V114.036L48.14 114.076C48.1933 114.089 48.2333 114.096 48.26 114.096H50.38C50.4733 114.096 50.5333 114.116 50.56 114.156C50.6 114.196 50.62 114.263 50.62 114.356V115.156C50.62 115.623 50.4333 115.916 50.06 116.036C49.6467 116.196 49.3333 116.303 49.12 116.356C48.32 116.489 47.5733 116.463 46.88 116.276C46.5333 116.209 46.24 116.089 46 115.916C45.8533 115.769 45.7533 115.636 45.7 115.516C45.62 115.369 45.5933 115.209 45.62 115.036V112.776C45.62 112.349 45.74 112.016 45.98 111.776C46.22 111.536 46.56 111.416 47 111.416C47.2933 111.376 47.7133 111.356 48.26 111.356ZM50 115.096C50 114.963 49.9533 114.849 49.86 114.756C49.7667 114.649 49.6533 114.596 49.52 114.596C49.3867 114.596 49.2667 114.649 49.16 114.756C49.0533 114.863 49 114.976 49 115.096C49 115.216 49.0467 115.323 49.14 115.416C49.2467 115.509 49.3667 115.569 49.5 115.596C49.6467 115.596 49.7667 115.549 49.86 115.456C49.9533 115.349 50 115.229 50 115.096Z" fill="#519ABA"/>
    <path d="M47.76 134.716H46.5C46.06 134.716 45.7067 134.849 45.44 135.116C45.1867 135.369 45.06 135.716 45.06 136.156V137.276C45.06 137.409 45 137.476 44.88 137.476H44.32C43.7333 137.476 43.3133 137.223 43.06 136.716C42.86 136.303 42.76 135.929 42.76 135.596C42.68 134.769 42.74 134.083 42.94 133.536C43.1533 132.896 43.5467 132.523 44.12 132.416H47.74C47.8733 132.416 47.94 132.396 47.94 132.356V132.036L47.86 131.996C47.8067 131.983 47.7733 131.976 47.76 131.976H45.62C45.5267 131.976 45.46 131.956 45.42 131.916C45.3933 131.876 45.38 131.809 45.38 131.716V130.916C45.38 130.449 45.5667 130.156 45.94 130.036C46.3533 129.863 46.6667 129.756 46.88 129.716C47.68 129.583 48.4267 129.603 49.12 129.776C49.4667 129.856 49.76 129.983 50 130.156C50.1467 130.303 50.2467 130.436 50.3 130.556C50.38 130.703 50.4067 130.863 50.38 131.036V133.276C50.38 133.716 50.26 134.056 50.02 134.296C49.78 134.536 49.44 134.656 49 134.656C48.7067 134.696 48.2933 134.716 47.76 134.716ZM46 130.976C46 131.109 46.0467 131.229 46.14 131.336C46.2333 131.429 46.3467 131.476 46.48 131.476C46.6133 131.476 46.7333 131.423 46.84 131.316C46.9467 131.209 47 131.096 47 130.976C47 130.856 46.9467 130.749 46.84 130.656C46.7467 130.563 46.6333 130.503 46.5 130.476C46.3533 130.476 46.2333 130.529 46.14 130.636C46.0467 130.729 46 130.843 46 130.976ZM48.26 135.356H49.5C49.94 135.356 50.2867 135.229 50.54 134.976C50.8067 134.709 50.94 134.356 50.94 133.916V132.776C50.94 132.656 51 132.596 51.12 132.596H51.68C52.2667 132.596 52.6867 132.849 52.94 133.356C53.1533 133.769 53.26 134.143 53.26 134.476C53.3267 135.303 53.26 135.989 53.06 136.536C52.8467 137.176 52.4533 137.549 51.88 137.656H48.26C48.1267 137.656 48.06 137.676 48.06 137.716V138.036L48.14 138.076C48.1933 138.089 48.2333 138.096 48.26 138.096H50.38C50.4733 138.096 50.5333 138.116 50.56 138.156C50.6 138.196 50.62 138.263 50.62 138.356V139.156C50.62 139.623 50.4333 139.916 50.06 140.036C49.6467 140.196 49.3333 140.303 49.12 140.356C48.32 140.489 47.5733 140.463 46.88 140.276C46.5333 140.209 46.24 140.089 46 139.916C45.8533 139.769 45.7533 139.636 45.7 139.516C45.62 139.369 45.5933 139.209 45.62 139.036V136.776C45.62 136.349 45.74 136.016 45.98 135.776C46.22 135.536 46.56 135.416 47 135.416C47.2933 135.376 47.7133 135.356 48.26 135.356ZM50 139.096C50 138.963 49.9533 138.849 49.86 138.756C49.7667 138.649 49.6533 138.596 49.52 138.596C49.3867 138.596 49.2667 138.649 49.16 138.756C49.0533 138.863 49 138.976 49 139.096C49 139.216 49.0467 139.323 49.14 139.416C49.2467 139.509 49.3667 139.569 49.5 139.596C49.6467 139.596 49.7667 139.549 49.86 139.456C49.9533 139.349 50 139.229 50 139.096Z" fill="#519ABA"/>
    <path d="M38.08 159.052L33.712 154.7L34.336 154.076L39.008 158.748V159.372L34.336 164.028L33.712 163.42L38.08 159.068V159.052Z" fill="var(--vscode-foreground, #808080)"/>
    <rect x="52" y="155.536" width="70" height="7" rx="3.5" fill="var(--vscode-foreground, #FFFFFF)" fill-opacity="0.16"/>
    <path d="M38.08 183.052L33.712 178.7L34.336 178.076L39.008 182.748V183.372L34.336 188.028L33.712 187.42L38.08 183.068V183.052Z" fill="var(--vscode-foreground, #808080)"/>
    <rect x="52" y="179.536" width="93" height="7" rx="3.5" fill="var(--vscode-foreground, #FFFFFF)" fill-opacity="0.16"/>
    <path d="M35.76 206.716H34.5C34.06 206.716 33.7067 206.849 33.44 207.116C33.1867 207.369 33.06 207.716 33.06 208.156V209.276C33.06 209.409 33 209.476 32.88 209.476H32.32C31.7333 209.476 31.3133 209.223 31.06 208.716C30.86 208.303 30.76 207.929 30.76 207.596C30.68 206.769 30.74 206.083 30.94 205.536C31.1533 204.896 31.5467 204.523 32.12 204.416H35.74C35.8733 204.416 35.94 204.396 35.94 204.356V204.036L35.86 203.996C35.8067 203.983 35.7733 203.976 35.76 203.976H33.62C33.5267 203.976 33.46 203.956 33.42 203.916C33.3933 203.876 33.38 203.809 33.38 203.716V202.916C33.38 202.449 33.5667 202.156 33.94 202.036C34.3533 201.863 34.6667 201.756 34.88 201.716C35.68 201.583 36.4267 201.603 37.12 201.776C37.4667 201.856 37.76 201.983 38 202.156C38.1467 202.303 38.2467 202.436 38.3 202.556C38.38 202.703 38.4067 202.863 38.38 203.036V205.276C38.38 205.716 38.26 206.056 38.02 206.296C37.78 206.536 37.44 206.656 37 206.656C36.7067 206.696 36.2933 206.716 35.76 206.716ZM34 202.976C34 203.109 34.0467 203.229 34.14 203.336C34.2333 203.429 34.3467 203.476 34.48 203.476C34.6133 203.476 34.7333 203.423 34.84 203.316C34.9467 203.209 35 203.096 35 202.976C35 202.856 34.9467 202.749 34.84 202.656C34.7467 202.563 34.6333 202.503 34.5 202.476C34.3533 202.476 34.2333 202.529 34.14 202.636C34.0467 202.729 34 202.843 34 202.976ZM36.26 207.356H37.5C37.94 207.356 38.2867 207.229 38.54 206.976C38.8067 206.709 38.94 206.356 38.94 205.916V204.776C38.94 204.656 39 204.596 39.12 204.596H39.68C40.2667 204.596 40.6867 204.849 40.94 205.356C41.1533 205.769 41.26 206.143 41.26 206.476C41.3267 207.303 41.26 207.989 41.06 208.536C40.8467 209.176 40.4533 209.549 39.88 209.656H36.26C36.1267 209.656 36.06 209.676 36.06 209.716V210.036L36.14 210.076C36.1933 210.089 36.2333 210.096 36.26 210.096H38.38C38.4733 210.096 38.5333 210.116 38.56 210.156C38.6 210.196 38.62 210.263 38.62 210.356V211.156C38.62 211.623 38.4333 211.916 38.06 212.036C37.6467 212.196 37.3333 212.303 37.12 212.356C36.32 212.489 35.5733 212.463 34.88 212.276C34.5333 212.209 34.24 212.089 34 211.916C33.8533 211.769 33.7533 211.636 33.7 211.516C33.62 211.369 33.5933 211.209 33.62 211.036V208.776C33.62 208.349 33.74 208.016 33.98 207.776C34.22 207.536 34.56 207.416 35 207.416C35.2933 207.376 35.7133 207.356 36.26 207.356ZM38 211.096C38 210.963 37.9533 210.849 37.86 210.756C37.7667 210.649 37.6533 210.596 37.52 210.596C37.3867 210.596 37.2667 210.649 37.16 210.756C37.0533 210.863 37 210.976 37 211.096C37 211.216 37.0467 211.323 37.14 211.416C37.2467 211.509 37.3667 211.569 37.5 211.596C37.6467 211.596 37.7667 211.549 37.86 211.456C37.9533 211.349 38 211.229 38 211.096Z" fill="#519ABA"/>
    <rect x="52" y="203.536" width="63" height="7" rx="3.5" fill="var(--vscode-foreground, #FFFFFF)" fill-opacity="0.16"/>
    <path d="M35.76 230.716H34.5C34.06 230.716 33.7067 230.849 33.44 231.116C33.1867 231.369 33.06 231.716 33.06 232.156V233.276C33.06 233.409 33 233.476 32.88 233.476H32.32C31.7333 233.476 31.3133 233.223 31.06 232.716C30.86 232.303 30.76 231.929 30.76 231.596C30.68 230.769 30.74 230.083 30.94 229.536C31.1533 228.896 31.5467 228.523 32.12 228.416H35.74C35.8733 228.416 35.94 228.396 35.94 228.356V228.036L35.86 227.996C35.8067 227.983 35.7733 227.976 35.76 227.976H33.62C33.5267 227.976 33.46 227.956 33.42 227.916C33.3933 227.876 33.38 227.809 33.38 227.716V226.916C33.38 226.449 33.5667 226.156 33.94 226.036C34.3533 225.863 34.6667 225.756 34.88 225.716C35.68 225.583 36.4267 225.603 37.12 225.776C37.4667 225.856 37.76 225.983 38 226.156C38.1467 226.303 38.2467 226.436 38.3 226.556C38.38 226.703 38.4067 226.863 38.38 227.036V229.276C38.38 229.716 38.26 230.056 38.02 230.296C37.78 230.536 37.44 230.656 37 230.656C36.7067 230.696 36.2933 230.716 35.76 230.716ZM34 226.976C34 227.109 34.0467 227.229 34.14 227.336C34.2333 227.429 34.3467 227.476 34.48 227.476C34.6133 227.476 34.7333 227.423 34.84 227.316C34.9467 227.209 35 227.096 35 226.976C35 226.856 34.9467 226.749 34.84 226.656C34.7467 226.563 34.6333 226.503 34.5 226.476C34.3533 226.476 34.2333 226.529 34.14 226.636C34.0467 226.729 34 226.843 34 226.976ZM36.26 231.356H37.5C37.94 231.356 38.2867 231.229 38.54 230.976C38.8067 230.709 38.94 230.356 38.94 229.916V228.776C38.94 228.656 39 228.596 39.12 228.596H39.68C40.2667 228.596 40.6867 228.849 40.94 229.356C41.1533 229.769 41.26 230.143 41.26 230.476C41.3267 231.303 41.26 231.989 41.06 232.536C40.8467 233.176 40.4533 233.549 39.88 233.656H36.26C36.1267 233.656 36.06 233.676 36.06 233.716V234.036L36.14 234.076C36.1933 234.089 36.2333 234.096 36.26 234.096H38.38C38.4733 234.096 38.5333 234.116 38.56 234.156C38.6 234.196 38.62 234.263 38.62 234.356V235.156C38.62 235.623 38.4333 235.916 38.06 236.036C37.6467 236.196 37.3333 236.303 37.12 236.356C36.32 236.489 35.5733 236.463 34.88 236.276C34.5333 236.209 34.24 236.089 34 235.916C33.8533 235.769 33.7533 235.636 33.7 235.516C33.62 235.369 33.5933 235.209 33.62 235.036V232.776C33.62 232.349 33.74 232.016 33.98 231.776C34.22 231.536 34.56 231.416 35 231.416C35.2933 231.376 35.7133 231.356 36.26 231.356ZM38 235.096C38 234.963 37.9533 234.849 37.86 234.756C37.7667 234.649 37.6533 234.596 37.52 234.596C37.3867 234.596 37.2667 234.649 37.16 234.756C37.0533 234.863 37 234.976 37 235.096C37 235.216 37.0467 235.323 37.14 235.416C37.2467 235.509 37.3667 235.569 37.5 235.596C37.6467 235.596 37.7667 235.549 37.86 235.456C37.9533 235.349 38 235.229 38 235.096Z" fill="#519ABA"/>
    <rect x="52" y="227.536" width="47" height="7" rx="3.5" fill="var(--vscode-foreground, #FFFFFF)" fill-opacity="0.16"/>
    <path d="M35.76 254.716H34.5C34.06 254.716 33.7067 254.849 33.44 255.116C33.1867 255.369 33.06 255.716 33.06 256.156V257.276C33.06 257.409 33 257.476 32.88 257.476H32.32C31.7333 257.476 31.3133 257.223 31.06 256.716C30.86 256.303 30.76 255.929 30.76 255.596C30.68 254.769 30.74 254.083 30.94 253.536C31.1533 252.896 31.5467 252.523 32.12 252.416H35.74C35.8733 252.416 35.94 252.396 35.94 252.356V252.036L35.86 251.996C35.8067 251.983 35.7733 251.976 35.76 251.976H33.62C33.5267 251.976 33.46 251.956 33.42 251.916C33.3933 251.876 33.38 251.809 33.38 251.716V250.916C33.38 250.449 33.5667 250.156 33.94 250.036C34.3533 249.863 34.6667 249.756 34.88 249.716C35.68 249.583 36.4267 249.603 37.12 249.776C37.4667 249.856 37.76 249.983 38 250.156C38.1467 250.303 38.2467 250.436 38.3 250.556C38.38 250.703 38.4067 250.863 38.38 251.036V253.276C38.38 253.716 38.26 254.056 38.02 254.296C37.78 254.536 37.44 254.656 37 254.656C36.7067 254.696 36.2933 254.716 35.76 254.716ZM34 250.976C34 251.109 34.0467 251.229 34.14 251.336C34.2333 251.429 34.3467 251.476 34.48 251.476C34.6133 251.476 34.7333 251.423 34.84 251.316C34.9467 251.209 35 251.096 35 250.976C35 250.856 34.9467 250.749 34.84 250.656C34.7467 250.563 34.6333 250.503 34.5 250.476C34.3533 250.476 34.2333 250.529 34.14 250.636C34.0467 250.729 34 250.843 34 250.976ZM36.26 255.356H37.5C37.94 255.356 38.2867 255.229 38.54 254.976C38.8067 254.709 38.94 254.356 38.94 253.916V252.776C38.94 252.656 39 252.596 39.12 252.596H39.68C40.2667 252.596 40.6867 252.849 40.94 253.356C41.1533 253.769 41.26 254.143 41.26 254.476C41.3267 255.303 41.26 255.989 41.06 256.536C40.8467 257.176 40.4533 257.549 39.88 257.656H36.26C36.1267 257.656 36.06 257.676 36.06 257.716V258.036L36.14 258.076C36.1933 258.089 36.2333 258.096 36.26 258.096H38.38C38.4733 258.096 38.5333 258.116 38.56 258.156C38.6 258.196 38.62 258.263 38.62 258.356V259.156C38.62 259.623 38.4333 259.916 38.06 260.036C37.6467 260.196 37.3333 260.303 37.12 260.356C36.32 260.489 35.5733 260.463 34.88 260.276C34.5333 260.209 34.24 260.089 34 259.916C33.8533 259.769 33.7533 259.636 33.7 259.516C33.62 259.369 33.5933 259.209 33.62 259.036V256.776C33.62 256.349 33.74 256.016 33.98 255.776C34.22 255.536 34.56 255.416 35 255.416C35.2933 255.376 35.7133 255.356 36.26 255.356ZM38 259.096C38 258.963 37.9533 258.849 37.86 258.756C37.7667 258.649 37.6533 258.596 37.52 258.596C37.3867 258.596 37.2667 258.649 37.16 258.756C37.0533 258.863 37 258.976 37 259.096C37 259.216 37.0467 259.323 37.14 259.416C37.2467 259.509 37.3667 259.569 37.5 259.596C37.6467 259.596 37.7667 259.549 37.86 259.456C37.9533 259.349 38 259.229 38 259.096Z" fill="#519ABA"/>
    <rect x="52" y="251.536" width="58" height="7" rx="3.5" fill="var(--vscode-foreground, #FFFFFF)" fill-opacity="0.16"/>
    <path d="M30.38 273.476V284.596H41.62V273.476H30.38ZM32.18 275.776H35.38V276.596H32.18V275.776ZM36.56 275.776H39.76V276.596H36.56V275.776ZM32.18 277.656H35.38V278.476H32.18V277.656ZM36.56 277.656H39.76V278.476H36.56V277.656ZM32.18 279.536H35.38V280.356H32.18V279.536ZM36.56 279.536H39.76V280.356H36.56V279.536ZM32.18 281.416H35.38V282.216H32.18V281.416ZM36.56 281.416H39.76V282.216H36.56V281.416Z" fill="#8DC149"/>
    <rect x="52" y="275.536" width="71" height="7" rx="3.5" fill="var(--vscode-foreground, #FFFFFF)" fill-opacity="0.16"/>
    <rect x="13" y="11" width="212.268" height="344" stroke="var(--vscode-activityBarBadge-background, #007ACC)" stroke-width="2" stroke-dasharray="6 4"/>
  </g>
  <g filter="url(#filter1_d_30514464)" style="" transform="matrix(0.959418, 0, 0, 0.959418, 0.527562, 14.406502)">
    <path d="M172.134 246.5C172.134 244.291 173.925 242.5 176.134 242.5H324.134C326.343 242.5 328.134 244.291 328.134 246.5V291.5C328.134 293.709 326.343 295.5 324.134 295.5H176.134C173.925 295.5 172.134 293.709 172.134 291.5V246.5Z" fill="var(--vscode-tab-inactiveBackground, #333333)"/>
    <path d="M209.894 261.48H199.734L198.454 260.2L197.894 259.96H190.374L189.654 260.76V277.24L190.374 277.96H209.894L210.614 277.24V262.28L209.894 261.48ZM209.094 274.2V276.52H191.094V267.48H197.894L198.374 267.24L199.654 265.96H209.174L209.094 274.2ZM209.094 264.52H199.334L198.854 264.76L197.574 266.04H191.174V261.48H197.574L198.854 262.76L199.414 263H209.174L209.094 264.52Z" fill="var(--vscode-tab-activeForeground, #FFFFFF)"/>
    <path d="M223.962 277.5H226.482V269.684C226.482 268.02 227.642 266.719 229.177 266.719C230.677 266.719 231.638 267.621 231.638 269.074V277.5H234.111V269.449C234.111 267.914 235.177 266.719 236.806 266.719C238.458 266.719 239.279 267.574 239.279 269.332V277.5H241.798V268.723C241.798 266.074 240.298 264.527 237.72 264.527C235.951 264.527 234.486 265.43 233.841 266.801H233.642C233.08 265.43 231.873 264.527 230.126 264.527C228.427 264.527 227.138 265.371 226.576 266.801H226.388V264.773H223.962V277.5ZM246.181 282.117C248.783 282.117 249.99 281.145 251.08 278.086L255.837 264.773H253.166L249.978 274.969H249.779L246.58 264.773H243.837L248.455 277.535L248.267 278.191C247.833 279.539 247.154 280.043 245.958 280.043C245.724 280.043 245.337 280.031 245.138 279.996V282.059C245.373 282.094 245.97 282.117 246.181 282.117ZM265.845 271.852V269.52H258.158V271.852H265.845ZM273.076 277.711C274.751 277.711 276.146 276.984 276.908 275.695H277.107V277.5H279.533V268.793C279.533 266.121 277.728 264.527 274.529 264.527C271.634 264.527 269.572 265.922 269.314 268.066H271.751C272.033 267.141 273.005 266.613 274.412 266.613C276.134 266.613 277.025 267.398 277.025 268.793V269.906L273.568 270.117C270.533 270.305 268.822 271.629 268.822 273.914C268.822 276.234 270.615 277.711 273.076 277.711ZM273.72 275.684C272.349 275.684 271.353 274.992 271.353 273.809C271.353 272.648 272.15 272.027 273.908 271.91L277.025 271.699V272.801C277.025 274.441 275.619 275.684 273.72 275.684ZM289.74 264.551C288.005 264.551 286.505 265.43 285.732 266.883H285.544V264.773H283.119V281.742H285.638V275.578H285.837C286.505 276.926 287.947 277.711 289.763 277.711C292.986 277.711 295.037 275.156 295.037 271.137C295.037 267.094 292.986 264.551 289.74 264.551ZM289.025 275.555C286.916 275.555 285.591 273.855 285.591 271.137C285.591 268.406 286.916 266.707 289.037 266.707C291.169 266.707 292.447 268.371 292.447 271.137C292.447 273.902 291.169 275.555 289.025 275.555ZM304.693 264.551C302.958 264.551 301.458 265.43 300.685 266.883H300.498V264.773H298.072V281.742H300.591V275.578H300.791C301.458 276.926 302.9 277.711 304.716 277.711C307.939 277.711 309.99 275.156 309.99 271.137C309.99 267.094 307.939 264.551 304.693 264.551ZM303.978 275.555C301.869 275.555 300.544 273.855 300.544 271.137C300.544 268.406 301.869 266.707 303.99 266.707C306.123 266.707 307.4 268.371 307.4 271.137C307.4 273.902 306.123 275.555 303.978 275.555Z" fill="var(--vscode-tab-activeForeground, #FFFFFF)"/>
  </g>
  <g filter="url(#filter2_d_30514464)" style="" transform="matrix(0.959418, 0, 0, 0.959418, 0.527562, 14.406502)">
    <path fill-rule="evenodd" clip-rule="evenodd" d="M210.634 310C210.634 314.97 214.664 319 219.634 319V319C224.604 319 228.634 314.97 228.634 310V310C228.634 305.029 224.604 301 219.634 301V301C214.664 301 210.634 305.029 210.634 310" fill="#3794FF"/>
    <path fill-rule="evenodd" clip-rule="evenodd" d="M220.634 309V306C220.634 305.448 220.186 305 219.634 305C219.082 305 218.634 305.448 218.634 306V309H215.634C215.082 309 214.634 309.448 214.634 310C214.634 310.552 215.082 311 215.634 311H218.634V314C218.634 314.552 219.082 315 219.634 315C220.186 315 220.634 314.552 220.634 314V311H223.634C224.186 311 224.634 310.552 224.634 310C224.634 309.448 224.186 309 223.634 309H220.634Z" fill="#FFFFFF"/>
    <path fill-rule="evenodd" clip-rule="evenodd" d="M209.634 303.5V287.5L221.234 299.108H214.188L214.037 299.232L209.634 303.5Z" fill="#FFFFFF"/>
    <path fill-rule="evenodd" clip-rule="evenodd" d="M210.634 289.8V301L213.603 298.131L213.763 297.992L218.799 298L210.634 289.8Z" fill="#000000"/>
  </g>
  <defs>
    <filter id="filter0_d_30514464" x="0" y="0" width="238.268" height="370" filterUnits="userSpaceOnUse" color-interpolation-filters="sRGB">
      <feFlood flood-opacity="0" result="BackgroundImageFix"/>
      <feColorMatrix in="SourceAlpha" type="matrix" values="0 0 0 0 0 0 0 0 0 0 0 0 0 0 0 0 0 0 127 0" result="hardAlpha"/>
      <feOffset dy="2"/>
      <feGaussianBlur stdDeviation="6"/>
      <feColorMatrix type="matrix" values="0 0 0 0 0 0 0 0 0 0 0 0 0 0 0 0 0 0 0.6 0"/>
      <feBlend mode="normal" in2="BackgroundImageFix" result="effect1_dropShadow_30514464"/>
      <feBlend mode="normal" in="SourceGraphic" in2="effect1_dropShadow_30514464" result="shape"/>
    </filter>
    <filter id="filter1_d_30514464" x="160.134" y="232.5" width="180" height="77" filterUnits="userSpaceOnUse" color-interpolation-filters="sRGB">
      <feFlood flood-opacity="0" result="BackgroundImageFix"/>
      <feColorMatrix in="SourceAlpha" type="matrix" values="0 0 0 0 0 0 0 0 0 0 0 0 0 0 0 0 0 0 127 0" result="hardAlpha"/>
      <feOffset dy="2"/>
      <feGaussianBlur stdDeviation="6"/>
      <feColorMatrix type="matrix" values="0 0 0 0 0 0 0 0 0 0 0 0 0 0 0 0 0 0 0.6 0"/>
      <feBlend mode="normal" in2="BackgroundImageFix" result="effect1_dropShadow_30514464"/>
      <feBlend mode="normal" in="SourceGraphic" in2="effect1_dropShadow_30514464" result="shape"/>
    </filter>
    <filter id="filter2_d_30514464" x="207.834" y="286.7" width="22.6" height="35.1" filterUnits="userSpaceOnUse" color-interpolation-filters="sRGB">
      <feFlood flood-opacity="0" result="BackgroundImageFix"/>
      <feColorMatrix in="SourceAlpha" type="matrix" values="0 0 0 0 0 0 0 0 0 0 0 0 0 0 0 0 0 0 127 0" result="hardAlpha"/>
      <feOffset dy="1"/>
      <feGaussianBlur stdDeviation="0.9"/>
      <feColorMatrix type="matrix" values="0 0 0 0 0 0 0 0 0 0 0 0 0 0 0 0 0 0 0.65 0"/>
      <feBlend mode="normal" in2="BackgroundImageFix" result="effect1_dropShadow_30514464"/>
      <feBlend mode="normal" in="SourceGraphic" in2="effect1_dropShadow_30514464" result="shape"/>
    </filter>
    <clipPath id="clip0_30514464">
      <rect width="198" height="318" fill="#FFFFFF" transform="translate(212 24)"/>
    </clipPath>
  </defs>
  <path d="M 62.741 127.531 L 62.741 117.961 L 63.809 117.961 L 63.809 118.859 C 64.061 118.509 64.345 118.245 64.663 118.069 C 64.98 117.893 65.364 117.805 65.816 117.805 C 66.406 117.805 66.928 117.957 67.379 118.261 C 67.831 118.565 68.172 118.993 68.402 119.547 C 68.632 120.101 68.747 120.709 68.747 121.368 C 68.747 122.075 68.62 122.713 68.365 123.279 C 68.112 123.846 67.742 124.282 67.259 124.582 C 66.774 124.884 66.266 125.036 65.732 125.036 C 65.34 125.036 64.989 124.954 64.678 124.788 C 64.368 124.623 64.114 124.415 63.913 124.162 L 63.913 127.531 L 62.741 127.531 Z M 63.803 121.458 C 63.803 122.35 63.983 123.008 64.343 123.433 C 64.704 123.859 65.141 124.072 65.653 124.072 C 66.174 124.072 66.621 123.851 66.991 123.41 C 67.363 122.969 67.549 122.286 67.549 121.362 C 67.549 120.48 67.367 119.821 67.005 119.381 C 66.642 118.943 66.208 118.723 65.704 118.723 C 65.205 118.723 64.763 118.957 64.38 119.424 C 63.996 119.891 63.803 120.569 63.803 121.458 Z M 70.145 124.88 L 70.145 117.961 L 71.2 117.961 L 71.2 119.01 C 71.469 118.52 71.717 118.195 71.946 118.039 C 72.174 117.883 72.424 117.805 72.699 117.805 C 73.093 117.805 73.496 117.93 73.904 118.183 L 73.5 119.271 C 73.213 119.101 72.926 119.016 72.639 119.016 C 72.383 119.016 72.154 119.093 71.95 119.248 C 71.745 119.402 71.599 119.615 71.512 119.89 C 71.383 120.305 71.317 120.762 71.317 121.257 L 71.317 124.88 L 70.145 124.88 Z M 74.167 121.42 C 74.167 120.139 74.523 119.19 75.235 118.573 C 75.829 118.061 76.555 117.805 77.41 117.805 C 78.361 117.805 79.139 118.117 79.742 118.739 C 80.345 119.363 80.648 120.224 80.648 121.322 C 80.648 122.213 80.514 122.913 80.248 123.423 C 79.981 123.934 79.591 124.33 79.081 124.611 C 78.57 124.894 78.014 125.036 77.41 125.036 C 76.442 125.036 75.66 124.725 75.062 124.104 C 74.465 123.484 74.167 122.588 74.167 121.42 Z M 75.371 121.42 C 75.371 122.307 75.565 122.969 75.95 123.41 C 76.338 123.851 76.823 124.072 77.41 124.072 C 77.992 124.072 78.476 123.85 78.862 123.407 C 79.25 122.964 79.442 122.289 79.442 121.381 C 79.442 120.526 79.249 119.877 78.859 119.436 C 78.472 118.996 77.988 118.776 77.41 118.776 C 76.823 118.776 76.338 118.994 75.95 119.433 C 75.565 119.872 75.371 120.534 75.371 121.42 Z M 81.805 125.452 L 82.944 125.622 C 82.991 125.973 83.124 126.23 83.342 126.391 C 83.632 126.607 84.031 126.716 84.534 126.716 C 85.076 126.716 85.496 126.607 85.79 126.391 C 86.087 126.173 86.286 125.869 86.39 125.479 C 86.451 125.24 86.479 124.738 86.475 123.974 C 85.963 124.577 85.324 124.88 84.559 124.88 C 83.608 124.88 82.873 124.536 82.352 123.85 C 81.831 123.163 81.57 122.341 81.57 121.381 C 81.57 120.721 81.69 120.112 81.927 119.554 C 82.167 118.996 82.514 118.565 82.968 118.261 C 83.421 117.957 83.955 117.805 84.566 117.805 C 85.383 117.805 86.055 118.135 86.585 118.794 L 86.585 117.961 L 87.667 117.961 L 87.667 123.94 C 87.667 125.019 87.557 125.782 87.339 126.231 C 87.119 126.681 86.772 127.036 86.296 127.296 C 85.821 127.556 85.235 127.687 84.54 127.687 C 83.716 127.687 83.049 127.502 82.541 127.13 C 82.032 126.758 81.787 126.2 81.805 125.452 Z M 82.776 121.296 C 82.776 122.204 82.956 122.866 83.316 123.283 C 83.677 123.7 84.128 123.909 84.67 123.909 C 85.209 123.909 85.662 123.701 86.026 123.287 C 86.39 122.872 86.573 122.222 86.573 121.336 C 86.573 120.488 86.385 119.85 86.009 119.421 C 85.633 118.99 85.181 118.776 84.651 118.776 C 84.13 118.776 83.687 118.987 83.322 119.41 C 82.958 119.834 82.776 120.463 82.776 121.296 Z M 89.426 124.88 L 89.426 117.961 L 90.482 117.961 L 90.482 119.01 C 90.751 118.52 91 118.195 91.227 118.039 C 91.456 117.883 91.707 117.805 91.979 117.805 C 92.376 117.805 92.777 117.93 93.185 118.183 L 92.781 119.271 C 92.495 119.101 92.209 119.016 91.922 119.016 C 91.665 119.016 91.435 119.093 91.232 119.248 C 91.027 119.402 90.882 119.615 90.794 119.89 C 90.665 120.305 90.599 120.762 90.599 121.257 L 90.599 124.88 L 89.426 124.88 Z M 98.398 124.026 C 97.964 124.395 97.547 124.655 97.145 124.808 C 96.744 124.959 96.311 125.036 95.852 125.036 C 95.092 125.036 94.507 124.849 94.1 124.478 C 93.691 124.107 93.487 123.632 93.487 123.055 C 93.487 122.716 93.564 122.406 93.719 122.126 C 93.873 121.847 94.075 121.622 94.324 121.453 C 94.574 121.284 94.855 121.155 95.167 121.069 C 95.398 121.007 95.746 120.949 96.21 120.892 C 97.156 120.78 97.854 120.645 98.301 120.488 C 98.306 120.327 98.307 120.227 98.307 120.182 C 98.307 119.705 98.196 119.368 97.975 119.172 C 97.675 118.907 97.231 118.776 96.639 118.776 C 96.089 118.776 95.681 118.872 95.418 119.066 C 95.155 119.258 94.961 119.601 94.836 120.091 L 93.688 119.935 C 93.794 119.445 93.965 119.048 94.203 118.746 C 94.442 118.445 94.788 118.212 95.238 118.05 C 95.69 117.886 96.214 117.805 96.809 117.805 C 97.399 117.805 97.88 117.874 98.249 118.013 C 98.618 118.151 98.89 118.327 99.063 118.538 C 99.236 118.748 99.359 119.014 99.427 119.336 C 99.467 119.536 99.486 119.896 99.486 120.416 L 99.486 121.98 C 99.486 123.07 99.512 123.76 99.562 124.049 C 99.611 124.338 99.709 124.615 99.858 124.88 L 98.633 124.88 C 98.512 124.636 98.433 124.351 98.398 124.026 Z M 98.301 121.408 C 97.875 121.581 97.237 121.729 96.386 121.85 C 95.903 121.919 95.564 121.998 95.363 122.085 C 95.164 122.172 95.009 122.299 94.901 122.466 C 94.792 122.633 94.739 122.819 94.739 123.023 C 94.739 123.335 94.857 123.596 95.094 123.804 C 95.33 124.012 95.676 124.117 96.131 124.117 C 96.584 124.117 96.986 124.018 97.338 123.82 C 97.688 123.623 97.947 123.353 98.113 123.009 C 98.238 122.744 98.301 122.354 98.301 121.836 L 98.301 121.408 Z M 101.301 124.88 L 101.301 117.961 L 102.35 117.961 L 102.35 118.932 C 102.567 118.593 102.856 118.321 103.216 118.115 C 103.577 117.908 103.987 117.805 104.448 117.805 C 104.96 117.805 105.38 117.911 105.708 118.123 C 106.035 118.337 106.267 118.634 106.401 119.016 C 106.949 118.209 107.662 117.805 108.538 117.805 C 109.224 117.805 109.753 117.995 110.122 118.375 C 110.49 118.755 110.675 119.34 110.675 120.131 L 110.675 124.88 L 109.509 124.88 L 109.509 120.521 C 109.509 120.052 109.47 119.715 109.395 119.509 C 109.319 119.302 109.181 119.137 108.981 119.01 C 108.782 118.883 108.548 118.821 108.277 118.821 C 107.792 118.821 107.388 118.983 107.066 119.306 C 106.745 119.63 106.584 120.147 106.584 120.86 L 106.584 124.88 L 105.411 124.88 L 105.411 120.384 C 105.411 119.864 105.316 119.472 105.124 119.211 C 104.934 118.95 104.622 118.821 104.187 118.821 C 103.857 118.821 103.552 118.907 103.272 119.081 C 102.992 119.256 102.788 119.51 102.663 119.845 C 102.537 120.179 102.473 120.66 102.473 121.291 L 102.473 124.88 L 101.301 124.88 Z M 112.749 124.88 L 112.749 123.543 L 114.084 123.543 L 114.084 124.88 L 112.749 124.88 Z M 118.043 124.88 L 115.411 117.961 L 116.65 117.961 L 118.135 122.105 C 118.295 122.552 118.442 123.016 118.576 123.498 C 118.682 123.134 118.828 122.694 119.013 122.183 L 120.551 117.961 L 121.756 117.961 L 119.138 124.88 L 118.043 124.88 Z M 127.306 124.026 C 126.872 124.395 126.454 124.655 126.052 124.808 C 125.65 124.959 125.219 125.036 124.759 125.036 C 123.999 125.036 123.415 124.849 123.007 124.478 C 122.599 124.107 122.394 123.632 122.394 123.055 C 122.394 122.716 122.472 122.406 122.626 122.126 C 122.78 121.847 122.982 121.622 123.231 121.453 C 123.481 121.284 123.763 121.155 124.075 121.069 C 124.306 121.007 124.652 120.949 125.118 120.892 C 126.065 120.78 126.761 120.645 127.208 120.488 C 127.213 120.327 127.215 120.227 127.215 120.182 C 127.215 119.705 127.105 119.368 126.883 119.172 C 126.584 118.907 126.137 118.776 125.546 118.776 C 124.996 118.776 124.589 118.872 124.325 119.066 C 124.064 119.258 123.869 119.601 123.743 120.091 L 122.597 119.935 C 122.701 119.445 122.873 119.048 123.111 118.746 C 123.35 118.445 123.695 118.212 124.147 118.05 C 124.599 117.886 125.121 117.805 125.716 117.805 C 126.307 117.805 126.787 117.874 127.156 118.013 C 127.526 118.151 127.797 118.327 127.971 118.538 C 128.144 118.748 128.265 119.014 128.336 119.336 C 128.375 119.536 128.394 119.896 128.394 120.416 L 128.394 121.98 C 128.394 123.07 128.419 123.76 128.469 124.049 C 128.519 124.338 128.618 124.615 128.764 124.88 L 127.54 124.88 C 127.419 124.636 127.341 124.351 127.306 124.026 Z M 127.208 121.408 C 126.783 121.581 126.144 121.729 125.293 121.85 C 124.811 121.919 124.471 121.998 124.27 122.085 C 124.071 122.172 123.916 122.299 123.808 122.466 C 123.7 122.633 123.645 122.819 123.645 123.023 C 123.645 123.335 123.764 123.596 124 123.804 C 124.236 124.012 124.583 124.117 125.04 124.117 C 125.491 124.117 125.893 124.018 126.244 123.82 C 126.596 123.623 126.854 123.353 127.019 123.009 C 127.145 122.744 127.208 122.354 127.208 121.836 L 127.208 121.408 Z M 134.7 124.88 L 134.7 124.006 C 134.262 124.693 133.617 125.036 132.766 125.036 C 132.214 125.036 131.707 124.884 131.244 124.579 C 130.782 124.275 130.424 123.851 130.17 123.306 C 129.916 122.76 129.789 122.135 129.789 121.427 C 129.789 120.737 129.904 120.11 130.133 119.547 C 130.365 118.985 130.709 118.554 131.17 118.254 C 131.63 117.956 132.145 117.805 132.713 117.805 C 133.131 117.805 133.502 117.893 133.828 118.069 C 134.153 118.245 134.418 118.474 134.622 118.756 L 134.622 115.33 L 135.788 115.33 L 135.788 124.88 L 134.7 124.88 Z M 130.994 121.427 C 130.994 122.312 131.18 122.975 131.553 123.413 C 131.928 123.852 132.369 124.072 132.876 124.072 C 133.39 124.072 133.823 123.863 134.183 123.442 C 134.541 123.024 134.72 122.384 134.72 121.524 C 134.72 120.578 134.538 119.883 134.173 119.44 C 133.808 118.997 133.358 118.776 132.824 118.776 C 132.304 118.776 131.867 118.988 131.519 119.414 C 131.169 119.839 130.994 120.51 130.994 121.427 Z M 142.146 124.026 C 141.713 124.395 141.294 124.655 140.892 124.808 C 140.491 124.959 140.06 125.036 139.6 125.036 C 138.839 125.036 138.256 124.849 137.847 124.478 C 137.438 124.107 137.235 123.632 137.235 123.055 C 137.235 122.716 137.311 122.406 137.465 122.126 C 137.62 121.847 137.821 121.622 138.072 121.453 C 138.321 121.284 138.603 121.155 138.916 121.069 C 139.145 121.007 139.494 120.949 139.958 120.892 C 140.905 120.78 141.602 120.645 142.048 120.488 C 142.053 120.327 142.055 120.227 142.055 120.182 C 142.055 119.705 141.944 119.368 141.722 119.172 C 141.424 118.907 140.979 118.776 140.388 118.776 C 139.836 118.776 139.429 118.872 139.166 119.066 C 138.904 119.258 138.709 119.601 138.583 120.091 L 137.437 119.935 C 137.541 119.445 137.713 119.048 137.951 118.746 C 138.191 118.445 138.536 118.212 138.987 118.05 C 139.439 117.886 139.963 117.805 140.558 117.805 C 141.148 117.805 141.627 117.874 141.997 118.013 C 142.366 118.151 142.637 118.327 142.81 118.538 C 142.985 118.748 143.107 119.014 143.176 119.336 C 143.214 119.536 143.234 119.896 143.234 120.416 L 143.234 121.98 C 143.234 123.07 143.259 123.76 143.309 124.049 C 143.36 124.338 143.458 124.615 143.606 124.88 L 142.381 124.88 C 142.259 124.636 142.182 124.351 142.146 124.026 Z M 142.048 121.408 C 141.623 121.581 140.984 121.729 140.133 121.85 C 139.652 121.919 139.311 121.998 139.112 122.085 C 138.912 122.172 138.758 122.299 138.648 122.466 C 138.54 122.633 138.485 122.819 138.485 123.023 C 138.485 123.335 138.604 123.596 138.84 123.804 C 139.077 124.012 139.424 124.117 139.879 124.117 C 140.332 124.117 140.733 124.018 141.084 123.82 C 141.436 123.623 141.694 123.353 141.859 123.009 C 141.986 122.744 142.048 122.354 142.048 121.836 L 142.048 121.408 Z" fill="var(--vscode-list-activeSelectionForeground, #FFFFFF)"/>
  <path d="M 65.917 146.942 L 66.091 148.013 C 65.75 148.084 65.445 148.121 65.175 148.121 C 64.735 148.121 64.394 148.051 64.151 147.911 C 63.909 147.772 63.738 147.589 63.639 147.364 C 63.541 147.136 63.492 146.659 63.492 145.931 L 63.492 141.817 L 62.603 141.817 L 62.603 140.874 L 63.492 140.874 L 63.492 139.102 L 64.697 138.375 L 64.697 140.874 L 65.917 140.874 L 65.917 141.817 L 64.697 141.817 L 64.697 145.999 C 64.697 146.345 64.718 146.567 64.762 146.665 C 64.804 146.764 64.873 146.843 64.97 146.902 C 65.067 146.96 65.204 146.989 65.384 146.989 C 65.519 146.989 65.696 146.973 65.917 146.942 Z M 71.997 145.723 L 73.25 145.878 C 73.052 146.61 72.685 147.178 72.151 147.582 C 71.617 147.985 70.934 148.188 70.104 148.188 C 69.057 148.188 68.228 147.865 67.616 147.222 C 67.003 146.577 66.696 145.673 66.696 144.511 C 66.696 143.307 67.006 142.374 67.625 141.709 C 68.244 141.044 69.048 140.712 70.036 140.712 C 70.993 140.712 71.774 141.037 72.38 141.689 C 72.986 142.339 73.29 143.256 73.29 144.436 C 73.29 144.507 73.287 144.616 73.283 144.76 L 67.949 144.76 C 67.993 145.546 68.215 146.147 68.615 146.564 C 69.015 146.983 69.514 147.192 70.11 147.192 C 70.555 147.192 70.934 147.075 71.248 146.841 C 71.563 146.607 71.812 146.234 71.997 145.723 Z M 68.016 143.763 L 72.01 143.763 C 71.956 143.161 71.804 142.71 71.552 142.409 C 71.166 141.942 70.665 141.709 70.05 141.709 C 69.493 141.709 69.024 141.895 68.645 142.268 C 68.266 142.64 68.056 143.139 68.016 143.763 Z M 74.282 145.891 L 75.48 145.703 C 75.547 146.184 75.734 146.551 76.042 146.807 C 76.349 147.063 76.78 147.192 77.333 147.192 C 77.889 147.192 78.303 147.078 78.572 146.851 C 78.842 146.624 78.976 146.358 78.976 146.053 C 78.976 145.779 78.857 145.563 78.619 145.406 C 78.452 145.298 78.04 145.162 77.38 144.996 C 76.491 144.77 75.875 144.577 75.531 144.412 C 75.188 144.249 74.927 144.022 74.749 143.732 C 74.572 143.443 74.483 143.123 74.483 142.773 C 74.483 142.453 74.556 142.158 74.703 141.887 C 74.848 141.615 75.048 141.389 75.299 141.21 C 75.487 141.071 75.744 140.953 76.07 140.857 C 76.395 140.76 76.745 140.712 77.117 140.712 C 77.678 140.712 78.171 140.793 78.595 140.955 C 79.019 141.116 79.333 141.335 79.536 141.611 C 79.737 141.887 79.875 142.257 79.952 142.719 L 78.767 142.881 C 78.713 142.512 78.557 142.225 78.299 142.019 C 78.041 141.812 77.676 141.709 77.205 141.709 C 76.648 141.709 76.25 141.801 76.013 141.984 C 75.774 142.168 75.656 142.384 75.656 142.632 C 75.656 142.788 75.705 142.93 75.804 143.056 C 75.902 143.185 76.057 143.294 76.269 143.379 C 76.39 143.423 76.747 143.527 77.34 143.689 C 78.196 143.918 78.795 144.105 79.135 144.251 C 79.473 144.396 79.739 144.608 79.932 144.887 C 80.125 145.166 80.222 145.512 80.222 145.925 C 80.222 146.328 80.104 146.709 79.869 147.066 C 79.633 147.423 79.293 147.699 78.848 147.895 C 78.403 148.09 77.9 148.188 77.34 148.188 C 76.41 148.188 75.701 147.994 75.214 147.608 C 74.727 147.223 74.415 146.65 74.282 145.891 Z M 84.309 146.942 L 84.485 148.013 C 84.143 148.084 83.838 148.121 83.569 148.121 C 83.128 148.121 82.787 148.051 82.545 147.911 C 82.303 147.772 82.131 147.589 82.033 147.364 C 81.934 147.136 81.885 146.659 81.885 145.931 L 81.885 141.817 L 80.995 141.817 L 80.995 140.874 L 81.885 140.874 L 81.885 139.102 L 83.09 138.375 L 83.09 140.874 L 84.309 140.874 L 84.309 141.817 L 83.09 141.817 L 83.09 145.999 C 83.09 146.345 83.111 146.567 83.155 146.665 C 83.197 146.764 83.266 146.843 83.363 146.902 C 83.46 146.96 83.598 146.989 83.777 146.989 C 83.912 146.989 84.089 146.973 84.309 146.942 Z M 85.843 148.027 L 85.843 146.645 L 87.223 146.645 L 87.223 148.027 L 85.843 148.027 Z M 91.315 148.027 L 88.594 140.874 L 89.875 140.874 L 91.41 145.157 C 91.576 145.619 91.729 146.1 91.868 146.599 C 91.976 146.221 92.126 145.768 92.32 145.238 L 93.909 140.874 L 95.155 140.874 L 92.448 148.027 L 91.315 148.027 Z M 100.893 147.144 C 100.444 147.526 100.012 147.795 99.596 147.952 C 99.181 148.109 98.736 148.188 98.26 148.188 C 97.474 148.188 96.869 147.996 96.447 147.613 C 96.025 147.228 95.814 146.737 95.814 146.14 C 95.814 145.79 95.894 145.47 96.053 145.181 C 96.213 144.891 96.421 144.659 96.68 144.483 C 96.939 144.308 97.228 144.176 97.552 144.086 C 97.79 144.023 98.149 143.963 98.63 143.904 C 99.608 143.788 100.328 143.648 100.792 143.487 C 100.796 143.321 100.798 143.215 100.798 143.17 C 100.798 142.676 100.684 142.329 100.455 142.126 C 100.145 141.853 99.684 141.716 99.074 141.716 C 98.503 141.716 98.083 141.815 97.812 142.015 C 97.539 142.215 97.339 142.568 97.208 143.076 L 96.023 142.915 C 96.131 142.406 96.308 141.997 96.555 141.686 C 96.801 141.373 97.159 141.133 97.626 140.964 C 98.093 140.795 98.634 140.712 99.249 140.712 C 99.86 140.712 100.356 140.784 100.738 140.928 C 101.119 141.072 101.4 141.252 101.579 141.47 C 101.759 141.688 101.884 141.962 101.957 142.294 C 101.998 142.501 102.018 142.875 102.018 143.413 L 102.018 145.029 C 102.018 146.156 102.044 146.869 102.095 147.167 C 102.146 147.466 102.248 147.752 102.401 148.027 L 101.135 148.027 C 101.009 147.775 100.929 147.481 100.893 147.144 Z M 100.792 144.436 C 100.351 144.616 99.691 144.768 98.812 144.894 C 98.313 144.966 97.961 145.047 97.754 145.137 C 97.548 145.227 97.389 145.358 97.276 145.53 C 97.163 145.703 97.107 145.896 97.107 146.107 C 97.107 146.43 97.229 146.7 97.475 146.915 C 97.719 147.131 98.077 147.238 98.549 147.238 C 99.016 147.238 99.431 147.136 99.796 146.932 C 100.158 146.727 100.425 146.447 100.596 146.093 C 100.726 145.819 100.792 145.415 100.792 144.882 L 100.792 144.436 Z M 108.532 148.027 L 108.532 147.124 C 108.078 147.833 107.412 148.188 106.533 148.188 C 105.961 148.188 105.437 148.03 104.959 147.717 C 104.482 147.402 104.111 146.964 103.848 146.4 C 103.584 145.836 103.454 145.189 103.454 144.457 C 103.454 143.743 103.573 143.094 103.811 142.514 C 104.049 141.932 104.406 141.486 104.882 141.176 C 105.358 140.866 105.89 140.712 106.478 140.712 C 106.909 140.712 107.294 140.802 107.63 140.984 C 107.967 141.167 108.241 141.403 108.452 141.695 L 108.452 138.152 L 109.658 138.152 L 109.658 148.027 L 108.532 148.027 Z M 104.7 144.457 C 104.7 145.373 104.893 146.058 105.28 146.511 C 105.665 146.965 106.121 147.192 106.647 147.192 C 107.177 147.192 107.626 146.974 107.998 146.541 C 108.367 146.108 108.553 145.447 108.553 144.558 C 108.553 143.579 108.364 142.861 107.987 142.403 C 107.609 141.944 107.145 141.716 106.593 141.716 C 106.054 141.716 105.604 141.935 105.242 142.376 C 104.882 142.815 104.7 143.51 104.7 144.457 Z M 116.231 147.144 C 115.782 147.526 115.35 147.795 114.935 147.952 C 114.52 148.109 114.075 148.188 113.599 148.188 C 112.812 148.188 112.208 147.996 111.787 147.613 C 111.364 147.228 111.153 146.737 111.153 146.14 C 111.153 145.79 111.233 145.47 111.392 145.181 C 111.551 144.891 111.761 144.659 112.02 144.483 C 112.278 144.308 112.567 144.176 112.891 144.086 C 113.129 144.023 113.489 143.963 113.969 143.904 C 114.948 143.788 115.667 143.648 116.131 143.487 C 116.135 143.321 116.137 143.215 116.137 143.17 C 116.137 142.676 116.022 142.329 115.794 142.126 C 115.484 141.853 115.024 141.716 114.413 141.716 C 113.843 141.716 113.421 141.815 113.15 142.015 C 112.878 142.215 112.678 142.568 112.547 143.076 L 111.361 142.915 C 111.47 142.406 111.647 141.997 111.894 141.686 C 112.141 141.373 112.497 141.133 112.966 140.964 C 113.432 140.795 113.973 140.712 114.588 140.712 C 115.198 140.712 115.694 140.784 116.077 140.928 C 116.458 141.072 116.739 141.252 116.918 141.47 C 117.098 141.688 117.224 141.962 117.295 142.294 C 117.336 142.501 117.357 142.875 117.357 143.413 L 117.357 145.029 C 117.357 146.156 117.383 146.869 117.435 147.167 C 117.486 147.466 117.587 147.752 117.741 148.027 L 116.474 148.027 C 116.349 147.775 116.267 147.481 116.231 147.144 Z M 116.131 144.436 C 115.69 144.616 115.03 144.768 114.151 144.894 C 113.652 144.966 113.3 145.047 113.093 145.137 C 112.886 145.227 112.727 145.358 112.614 145.53 C 112.502 145.703 112.447 145.896 112.447 146.107 C 112.447 146.43 112.568 146.7 112.814 146.915 C 113.059 147.131 113.417 147.238 113.889 147.238 C 114.355 147.238 114.77 147.136 115.134 146.932 C 115.498 146.727 115.764 146.447 115.936 146.093 C 116.066 145.819 116.131 145.415 116.131 144.882 L 116.131 144.436 Z" fill="var(--vscode-foreground, #A0A0A0)" style=""/>
</svg>